<svg width="752" height="212" xmlns="http://www.w3.org/2000/svg">
 <defs>
  <pattern y="0" x="0" height="6" width="6" patternUnits="userSpaceOnUse" id="EMFhbasepattern"/>
 </defs>
 <metadata id="metadata5">image/svg+xml</metadata>
 <g>
  <title>background</title>
  <rect fill="none" id="canvas_background" height="214" width="754" y="-1" x="-1"/>
 </g>
 <g>
  <title>Layer 1</title>
  <g fill="#ea2845" id="layer1">
   <path fill="#ea2845" fill-rule="evenodd" stroke-width="0.663868" id="path818" d="m123.98004,3.154774c-1.48704,0 -2.86787,0.31866 -4.14249,0.74353c2.70854,1.8057 4.1956,4.19562 4.93914,6.90417c0.0532,0.37176 0.15933,0.63732 0.21251,1.00907c0.0532,0.31866 0.10615,0.63731 0.10615,0.95598c0.21253,4.67358 -1.22153,5.25778 -2.23059,8.01945c-1.54017,3.55832 -1.11531,7.38216 0.74352,10.4625c0.15934,0.37174 0.37176,0.79662 0.63732,1.16839c-2.01816,-13.4366 9.18787,-15.45474 11.2591,-19.65034c0.15933,-3.66454 -2.86787,-6.10756 -5.25777,-7.80705c-2.28369,-1.38083 -4.35497,-1.8057 -6.26689,-1.8057zm16.88868,3.02722c-0.21252,1.2215 -0.0532,0.90285 -0.10613,1.54016c-0.0532,0.42487 -0.0532,0.95597 -0.10613,1.38083c-0.10614,0.42488 -0.21253,0.84974 -0.37178,1.27463c-0.10613,0.42486 -0.26554,0.84974 -0.42487,1.2746c-0.21253,0.4249 -0.37175,0.79664 -0.58419,1.22151c-0.15933,0.21253 -0.26554,0.42487 -0.42487,0.63732c-0.10614,0.15932 -0.21252,0.31865 -0.31865,0.47798c-0.26554,0.37178 -0.53111,0.74352 -0.79664,1.06218c-0.31866,0.31866 -0.5842,0.69041 -0.95599,0.95597c0,0.05318 0,0.05318 0,0.05318c-0.31864,0.26555 -0.6373,0.5842 -1.00905,0.84974c-1.1153,0.84973 -2.3899,1.48705 -3.55831,2.28369c-0.37175,0.26554 -0.74353,0.47799 -1.06218,0.79664c-0.37175,0.26554 -0.69042,0.53107 -1.00905,0.84974c-0.37179,0.31865 -0.63733,0.63731 -0.95599,1.00908c-0.26554,0.31866 -0.58419,0.69041 -0.79662,1.06219c-0.26557,0.37174 -0.5311,0.74351 -0.74355,1.11527c-0.21251,0.42486 -0.37175,0.79664 -0.58419,1.2215c-0.15932,0.42487 -0.31866,0.79665 -0.42487,1.22151c-0.15933,0.47799 -0.26554,0.90286 -0.37176,1.32774c-0.0532,0.21253 -0.0532,0.47797 -0.10614,0.69041c-0.0532,0.21253 -0.0532,0.42487 -0.10613,0.63732c0,0.42486 -0.0532,0.90285 -0.0532,1.32771c0,0.31866 0,0.63732 0.0532,0.95598c0,0.42486 0.0532,0.84972 0.15932,1.32771c0.0532,0.42486 0.15932,0.84974 0.26556,1.27463c0.15934,0.42486 0.26555,0.84974 0.42487,1.2746c0.10615,0.26557 0.26554,0.5311 0.37178,0.74352l-12.21509,-4.7267c-2.07127,-0.5842 -4.0894,-1.11527 -6.16067,-1.59326c-1.11527,-0.26554 -2.23055,-0.5311 -3.34586,-0.79664c-3.18655,-0.63731 -6.42617,-1.11528 -9.66584,-1.43393c-0.10612,0 -0.15932,-0.05318 -0.26553,-0.05318c-3.18657,-0.31865 -6.31998,-0.47798 -9.50652,-0.47798c-2.33682,0 -4.67362,0.10613 -6.95731,0.26554c-3.23966,0.21252 -6.47932,0.63732 -9.71895,1.16839c-0.79664,0.10614 -1.59328,0.26557 -2.38993,0.42489c-1.64637,0.31863 -3.23963,0.69041 -4.77979,1.06218c-0.79664,0.21252 -1.59329,0.42487 -2.38993,0.63729c-0.79661,0.31866 -1.54014,0.69044 -2.28369,1.00909c-0.58419,0.26553 -1.16839,0.53108 -1.75258,0.79664c-0.10614,0.05318 -0.21252,0.05318 -0.26554,0.10614c-0.5311,0.26553 -1.00909,0.47795 -1.48705,0.74352c-0.15933,0.05318 -0.26556,0.10613 -0.37177,0.15933c-0.5842,0.26553 -1.16839,0.58419 -1.64638,0.84973c-0.37177,0.15933 -0.74352,0.37177 -1.06218,0.53111c-0.15933,0.10613 -0.37177,0.21251 -0.47798,0.26553c-0.47799,0.26554 -0.95597,0.53108 -1.38084,0.79665c-0.47798,0.26553 -0.90285,0.53107 -1.27463,0.79661c-0.37174,0.26556 -0.74352,0.47799 -1.06218,0.74352c-0.0532,0.0532 -0.10613,0.0532 -0.15932,0.10614c-0.31866,0.21253 -0.69041,0.47798 -1.00907,0.74355c0,0 -0.0532,0.0532 -0.10613,0.10614c-0.26554,0.21252 -0.5311,0.42486 -0.79664,0.63728c-0.10614,0.0532 -0.21252,0.15933 -0.31866,0.21252c-0.26554,0.21253 -0.53108,0.47799 -0.79662,0.69043c-0.0532,0.10614 -0.15932,0.15933 -0.21252,0.21253c-0.31865,0.31865 -0.63731,0.58419 -0.95597,0.90285c-0.0532,0 -0.0532,0.0532 -0.10613,0.10613c-0.31866,0.26554 -0.63731,0.5842 -0.95597,0.90286c-0.0532,0.0532 -0.0532,0.10613 -0.10614,0.10613c-0.26554,0.26554 -0.53107,0.5311 -0.79664,0.84973c-0.10613,0.10614 -0.26554,0.21253 -0.37175,0.31866c-0.26554,0.31866 -0.58419,0.63731 -0.90285,0.95597c-0.0532,0.10613 -0.15933,0.15933 -0.21252,0.26554c-0.42487,0.42489 -0.79664,0.84976 -1.22151,1.27463c-0.0532,0.0532 -0.10613,0.10613 -0.15933,0.15933c-0.84976,0.90285 -1.75261,1.8057 -2.70855,2.60233c-0.95597,0.84973 -1.96504,1.64638 -2.97412,2.33679c-1.06218,0.74355 -2.07125,1.38083 -3.18654,2.01814c-1.06218,0.58419 -2.17748,1.1153 -3.34587,1.59328c-1.1153,0.47798 -2.28369,0.90287 -3.45208,1.27461c-2.2306,0.47798 -4.51429,1.38083 -6.47932,1.54016c-0.42487,0 -0.90285,0.10615 -1.32772,0.15932c-0.47798,0.10614 -0.90285,0.21253 -1.32772,0.31867c-0.42486,0.15932 -0.84976,0.31865 -1.27462,0.47797c-0.42487,0.15933 -0.84974,0.37178 -1.27461,0.58421c-0.37177,0.26553 -0.79664,0.47798 -1.16841,0.74352c-0.37175,0.26554 -0.74353,0.58419 -1.06218,0.90285c-0.37175,0.26557 -0.74353,0.63732 -1.06218,0.95596c-0.31866,0.37179 -0.63732,0.69044 -0.90286,1.06218c-0.26553,0.42487 -0.58419,0.79665 -0.79664,1.22153c-0.26554,0.37177 -0.53107,0.79663 -0.74352,1.22148c-0.21252,0.47801 -0.42487,0.90287 -0.5842,1.38085c-0.15932,0.42488 -0.31865,0.90285 -0.47798,1.38084c-0.10614,0.42486 -0.21252,0.84974 -0.26554,1.2746c0,0.0532 -0.05319,0.10614 -0.05319,0.15932c-0.10614,0.47802 -0.10614,1.11533 -0.15933,1.434c-0.05319,0.37174 -0.10613,0.69039 -0.10613,1.06217c0,0.21252 0,0.47796 0.05319,0.6904c0.05319,0.37179 0.10613,0.69043 0.21252,1.0091c0.10613,0.31862 0.21252,0.63728 0.37175,0.95594c0,0.0532 0,0.0532 0,0.0532c0.15932,0.31867 0.37177,0.63732 0.58419,0.95597c0.21252,0.31867 0.42489,0.63732 0.69043,0.95598c0.26554,0.26553 0.5842,0.58418 0.90285,0.84973c0.31866,0.31865 0.63732,0.58419 1.00907,0.84973c1.27462,1.11531 1.59328,1.48709 3.23966,2.3368c0.26553,0.15934 0.5311,0.26556 0.84976,0.42489c0.05319,0 0.10613,0.0532 0.15932,0.0532c0,0.10613 0,0.15933 0.05319,0.26557c0.05319,0.42487 0.15933,0.84972 0.26554,1.2746c0.10614,0.47799 0.26557,0.90287 0.4249,1.27462c0.15932,0.31866 0.26553,0.63731 0.42486,0.95598c0.05319,0.10614 0.10614,0.21252 0.15933,0.26554c0.21252,0.42485 0.42487,0.79665 0.63729,1.16839c0.26556,0.37176 0.5311,0.74351 0.79664,1.1153c0.26554,0.31864 0.5842,0.69041 0.90285,1.00905c0.31866,0.31867 0.63732,0.58422 1.00909,0.90285c0,0 0.0532,0.0532 0.10613,0.0532c0.31866,0.26557 0.63732,0.53112 0.95598,0.74353c0.37175,0.26555 0.74352,0.47798 1.16839,0.69043c0.37177,0.21252 0.79664,0.42486 1.2215,0.5842c0.31866,0.15933 0.69041,0.26556 1.06219,0.37176c0.0532,0.0532 0.10613,0.0532 0.21252,0.10616c0.21252,0.0532 0.47796,0.10611 0.6904,0.15931c-0.15933,2.86788 -0.21252,5.57643 0.21252,6.53242c0.47796,1.06217 2.81477,-2.17747 5.15158,-5.89511c-0.31866,3.66453 -0.53111,7.96634 0,9.24098c0.58419,1.3277 3.77073,-2.81481 6.5324,-7.38217c37.6543,-8.70986 72.01589,17.31356 75.62729,54.065c-0.69042,-5.73578 -7.75392,-8.92232 -10.99356,-8.12567c-1.59329,3.93006 -4.30185,8.97542 -8.65678,12.10885c0.37176,-3.5052 0.21251,-7.1166 -0.53108,-10.62181c-1.16842,4.88603 -3.45211,9.45343 -6.58555,13.38349l0,0c-5.04536,0.37174 -10.09073,-2.07127 -12.74619,-5.73578c-0.21252,-0.15933 -0.26554,-0.47799 -0.42486,-0.69042c-0.15933,-0.37179 -0.31866,-0.74352 -0.42487,-1.11531c-0.15933,-0.37174 -0.26554,-0.74352 -0.31866,-1.11526c-0.0532,-0.37179 -0.0532,-0.74354 -0.0532,-1.1684c0,-0.26556 0,-0.53109 0,-0.79663c0.0532,-0.37179 0.15933,-0.74356 0.26554,-1.11532c0.10614,-0.37175 0.21252,-0.74352 0.37177,-1.11529c0.21253,-0.37174 0.37175,-0.74351 0.63732,-1.11527c0.90285,-2.54926 0.90285,-4.62049 -0.74352,-5.842c-0.31866,-0.21252 -0.63732,-0.37177 -1.00909,-0.5311c-0.21253,-0.0532 -0.47799,-0.15933 -0.69041,-0.21252c-0.15933,-0.0532 -0.26554,-0.10615 -0.42487,-0.15933c-0.37177,-0.10614 -0.74354,-0.21253 -1.11529,-0.26554c-0.37178,-0.10613 -0.74353,-0.15933 -1.1153,-0.15933c-0.37175,-0.0532 -0.79664,-0.10614 -1.16839,-0.10614c-0.26554,0 -0.53111,0.0532 -0.79664,0.0532c-0.42487,0 -0.79665,0.0532 -1.1684,0.15933c-0.37177,0.0532 -0.74352,0.10612 -1.11529,0.2125c-0.37175,0.10615 -0.74353,0.21253 -1.1153,0.3718c-0.37175,0.15932 -0.69041,0.31865 -1.06218,0.47797c-0.31863,0.15934 -0.63729,0.37175 -1.00906,0.53108c-12.37442,8.07257 -4.99225,26.97938 3.45208,32.44963c-3.18654,0.58419 -6.42618,1.27463 -7.32903,1.96503c-0.0532,0.0532 -0.10614,0.10614 -0.10614,0.10614c2.28369,1.38082 4.67359,2.54922 7.1697,3.55829c3.39899,1.11529 7.0104,2.12436 8.60368,2.54925c0,0 0,0.0532 0,0.0532c4.40805,0.90285 8.86922,1.22151 13.38348,0.95597c23.52732,-1.64637 42.8059,-19.54414 46.31111,-43.12455c0.10614,0.478 0.21252,0.90285 0.31866,1.38084l0,0c0.15933,0.95594 0.37175,1.96502 0.47796,2.97409c0,0 0,0 0,0.0532c0.10614,0.47798 0.15932,0.95596 0.21252,1.38083c0,0.10614 0,0.15933 0,0.21253c0.0532,0.47798 0.10614,0.95597 0.10614,1.38083c0.0532,0.5842 0.10614,1.16839 0.10614,1.75262c0,0.26553 0,0.53108 0,0.84972c0,0.26557 0.0532,0.5842 0.0532,0.84976c0,0.31867 -0.0532,0.6373 -0.0532,0.95595c0,0.26557 0,0.5311 0,0.74352c0,0.37179 -0.0532,0.69042 -0.0532,1.06219c0,0.2125 0,0.42488 -0.0532,0.69043c0,0.37177 -0.0532,0.74351 -0.0532,1.16839c-0.0532,0.15932 -0.0532,0.31865 -0.0532,0.47799c-0.0532,0.42488 -0.10613,0.79664 -0.15934,1.22151c0,0.15934 0,0.31865 -0.0532,0.47799c-0.0532,0.53108 -0.15931,1.00907 -0.2125,1.54015c0,0 0,0.0532 0,0.0532l0,0.0532c-0.10613,0.47798 -0.21253,1.00906 -0.31867,1.48704c0,0.0532 0,0.10613 0,0.15933c-0.10612,0.47798 -0.21252,0.95597 -0.31864,1.43393c0,0.0532 -0.0532,0.15933 -0.0532,0.21251c-0.10615,0.478 -0.21253,0.95597 -0.37175,1.43398c0,0.0532 0,0.10612 0,0.15932c-0.15932,0.53107 -0.31866,1.00905 -0.42488,1.48704c-0.0532,0.0532 -0.0532,0.10614 -0.0532,0.10614c-0.15934,0.5311 -0.31864,1.06218 -0.47796,1.59326c-0.21252,0.5311 -0.37176,1.00908 -0.58419,1.54018c-0.21252,0.53109 -0.37179,1.06218 -0.58422,1.54015c-0.21252,0.5311 -0.42488,1.00909 -0.6373,1.54017c0,0 -0.0532,0 -0.0532,0c-0.21253,0.47798 -0.4249,1.00908 -0.69046,1.48707c0,0 0,0 0,0c0,0 0,0 0,0c-0.0532,0.15931 -0.10611,0.26554 -0.15931,0.37174c-0.0532,0.0532 -0.0532,0.10613 -0.10613,0.15934c-3.45208,6.95726 -8.55057,13.06481 -14.92364,17.84463l0,0c-0.42486,0.26554 -0.84975,0.58421 -1.2746,0.90285c0,0 0,0 0,0c-0.10615,0.10614 -0.26557,0.15934 -0.37178,0.26553c-0.37177,0.26555 -0.74353,0.53108 -1.16838,0.79665l0.15931,0.31866l0.0532,0l0,0c0.74351,-0.10613 1.48704,-0.21252 2.23057,-0.31866l0.0532,0c1.38084,-0.21252 2.76168,-0.47799 4.14252,-0.74352c0.37174,-0.0532 0.79664,-0.15932 1.16837,-0.26557c0.26555,-0.0532 0.478,-0.10612 0.74354,-0.15933c0.37177,-0.0532 0.74352,-0.15932 1.1153,-0.2125c0.31865,-0.10614 0.63731,-0.15935 0.95597,-0.26555c5.31089,-1.27463 10.46248,-3.02724 15.40159,-5.09848c-8.44432,11.52464 -19.75655,20.81874 -32.9807,26.92628c6.10755,-0.42488 12.21509,-1.43394 18.11019,-3.13342c21.40295,-6.32 39.4069,-20.71254 50.18803,-40.09734c-2.17747,12.2682 -7.0635,23.95219 -14.28632,34.14912c5.15156,-3.39899 9.87827,-7.32906 14.18011,-11.79022c11.89641,-12.42751 19.70347,-28.20087 22.3589,-45.14269c1.80571,8.39124 2.33681,17.04804 1.54016,25.59858c38.34473,-53.48081 3.18655,-108.92665 -11.52465,-123.53163c-0.0532,-0.10613 -0.10614,-0.15932 -0.10614,-0.26553c-0.0532,0.0532 -0.0532,0.0532 -0.0532,0.10614c0,-0.0532 0,-0.0532 -0.0532,-0.10614c0,0.63731 -0.0532,1.27459 -0.10614,1.91191c-0.15934,1.22151 -0.31865,2.3899 -0.5311,3.55832c-0.26554,1.16839 -0.58419,2.33676 -0.90285,3.50519c-0.37176,1.11527 -0.79661,2.28367 -1.27461,3.39896c-0.47799,1.06217 -1.00908,2.17747 -1.59327,3.23966c-0.58421,1.00908 -1.22152,2.07126 -1.91192,3.02721c-0.69042,1.00909 -1.43395,1.96504 -2.17749,2.86787c-0.79664,0.95599 -1.64637,1.80573 -2.49613,2.65548c-0.53107,0.47798 -1.00905,0.90285 -1.54017,1.3277c-0.42485,0.37179 -0.79661,0.69045 -1.2215,1.06218c-0.95595,0.74354 -1.91192,1.43396 -2.97409,2.07127c-1.00907,0.6373 -2.07124,1.27461 -3.13342,1.80571c-1.1153,0.53109 -2.2306,1.00906 -3.34587,1.48706c-1.1153,0.42485 -2.28369,0.79663 -3.45212,1.11529c-1.16838,0.31864 -2.38988,0.5842 -3.55829,0.79662c-1.22149,0.21253 -2.44301,0.31866 -3.61141,0.42489c-0.84974,0.0532 -1.69948,0.10614 -2.54923,0.10614c-1.22152,0 -2.44301,-0.10614 -3.61141,-0.21252c-1.22151,-0.10614 -2.44303,-0.26558 -3.61142,-0.53112c-1.2215,-0.21251 -2.38992,-0.5311 -3.55832,-0.90283l-0.0532,0c1.1684,-0.10614 2.33681,-0.21254 3.50522,-0.42489c1.22148,-0.21251 2.38988,-0.47797 3.5583,-0.79664c1.16838,-0.31864 2.33678,-0.69042 3.45208,-1.11529c1.16839,-0.42487 2.28369,-0.95594 3.34587,-1.48706c1.11529,-0.5311 2.12436,-1.11528 3.18654,-1.75259c1.00906,-0.69042 2.01814,-1.38082 2.9741,-2.12437c0.95596,-0.74352 1.8588,-1.54014 2.70857,-2.38989c0.90286,-0.79665 1.69948,-1.6995 2.49612,-2.60236c0.79663,-0.95593 1.54016,-1.91191 2.23058,-2.86787c0.10614,-0.15934 0.21253,-0.37176 0.31867,-0.53109c0.53107,-0.84974 1.06215,-1.69949 1.54013,-2.54924c0.58421,-1.06219 1.11531,-2.12437 1.59329,-3.23964c0.47798,-1.1153 0.90285,-2.2306 1.27462,-3.39898c0.37175,-1.11531 0.6373,-2.28369 0.90285,-3.45208c0.21253,-1.22151 0.42486,-2.38993 0.53109,-3.55831c0.10613,-1.22151 0.21251,-2.44302 0.21251,-3.61141c0,-0.84976 -0.0532,-1.69949 -0.10612,-2.54923c-0.10614,-1.2215 -0.26555,-2.38992 -0.42488,-3.55831c-0.21252,-1.22151 -0.47797,-2.3899 -0.79665,-3.55832c-0.37174,-1.11527 -0.74351,-2.28368 -1.16838,-3.39895c-0.4249,-1.11531 -0.95596,-2.2306 -1.48707,-3.29279c-0.5842,-1.06218 -1.16839,-2.12435 -1.8057,-3.13342c-0.69041,-1.00906 -1.38084,-1.96502 -2.12437,-2.921c-0.79661,-0.90285 -1.59326,-1.8057 -2.44302,-2.70856c-0.42485,-0.42486 -0.90285,-0.90285 -1.38083,-1.32771c-2.3899,-1.85883 -4.88603,-3.61144 -7.38214,-5.2047c-0.37176,-0.21251 -0.69041,-0.37177 -1.06218,-0.5311c-1.75262,-1.11528 -3.39899,-1.69949 -5.04536,-2.23057l-0.00017,-0.00024z"/>
   <path fill="#ea2845" fill-rule="nonzero" stroke-width="1.148104" id="path820" d="m257.5823,141.572294c1.5614,-0.7348 3.03093,-1.19404 4.40868,-1.46958c3.39833,-0.5511 5.32718,-1.01031 5.87824,-1.37773c0.91848,-0.55105 1.5614,-1.28587 1.83697,-2.02061c0.36752,-1.28587 0.55103,-3.94948 0.55103,-8.17446l0,-7.99076l0.092,-6.52119l-0.27554,-9.73583l0,-5.78639c0,-3.8576 -0.27553,-7.07229 -0.91847,-9.46033c-0.18355,-0.91843 -1.0103,-1.83693 -2.29618,-2.75541c-1.74512,-1.28582 -4.59239,-2.47986 -8.72553,-3.67389l-0.092,-4.4087c0.73482,-0.18355 1.46956,-0.36753 2.11252,-0.45926c0.6429,-0.092 3.12282,-0.73474 7.43962,-1.83695c3.39841,-1.19396 5.60273,-2.11246 6.52123,-2.57171c0.36751,-0.18354 0.82657,-0.4592 1.56141,-0.82662c0.73475,-0.6429 1.5614,-1.194 2.47985,-1.83696c1.83695,-1.28584 4.04129,-3.58203 6.61304,-6.70486l4.86795,-0.36752l-0.18355,10.37875c-0.092,1.0103 -0.092,1.83693 -0.092,2.47991c0,0.5511 0,1.92876 0.092,4.225c5.14347,-4.40873 9.73583,-7.43969 13.96084,-9.18475c5.41897,-2.29624 10.65426,-3.39842 15.52224,-3.39842c5.78641,0 10.92985,1.46958 15.24668,4.31684c4.40869,2.84729 7.25597,6.15382 8.54187,9.82772c1.37766,3.76573 2.02064,11.38912 2.02064,22.68633l-0.36754,30.12605c0,1.3777 0.27553,2.57172 0.73473,3.49023c0.64301,0.45921 2.38812,0.91845 5.14351,1.37772l4.50053,0.82657c0.55112,0.82665 0.82666,1.74515 0.82666,2.93913c0,0.73477 0,1.74515 -0.092,3.03101l-18.09397,-1.28586l-5.32717,0.18353l-4.22502,0l-12.21571,0.91846l-3.12282,0c-0.092,-0.82661 -0.092,-1.37771 -0.092,-1.83696c0,-1.10217 0.092,-2.29617 0.18354,-3.58202c0.82662,-0.18354 3.03096,-0.45927 6.42936,-0.9185c0.91846,-0.092 1.92877,-0.36754 3.12282,-0.64292c1.194,-0.45928 1.92875,-1.01027 2.11251,-1.46958c0.45922,-1.10215 0.73476,-3.03095 0.73476,-5.97008c0,-5.23533 -0.092,-9.18474 -0.18355,-11.94021l0.092,-10.65432c0,-13.04236 -0.73477,-21.12493 -2.38804,-24.24776c-2.38804,-4.68422 -5.87823,-6.98041 -10.56248,-6.98041c-3.39837,0 -6.9804,0.91846 -10.65431,2.66356c-3.76577,1.74512 -7.53148,4.40872 -11.48094,7.99073l-0.18353,1.56143l0.18353,5.78641l-0.092,6.15383l0.36751,14.78738l-0.18355,2.29624c0,10.01139 0.36756,15.70593 1.19405,16.9918c0.82659,1.28586 3.85758,2.66358 9.18476,4.22499c0.18355,1.01029 0.27553,1.83695 0.27553,2.29618c0,0.73482 -0.27553,1.83695 -0.64294,3.39835c-1.92882,0.092 -3.58203,0.092 -4.8679,0.092c-1.28585,0 -3.30655,-0.18354 -6.06197,-0.55105l-9.82777,-0.1835c-4.9598,0 -12.03207,0.18353 -21.3087,0.64289c-0.27553,-0.64289 -0.36754,-1.28583 -0.36754,-1.92874c0,-0.45928 0,-1.46962 0.092,-2.93916l0.00011,-0.00004z"/>
   <path fill="#ea2845" fill-rule="nonzero" stroke-width="1.148104" id="path822" d="m366.05432,97.393554c1.65328,-5.23531 3.03097,-8.72549 4.31687,-10.37877c3.39838,-5.05161 7.07227,-9.00103 10.92985,-11.84832c3.94943,-2.84728 7.43967,-4.68421 10.56247,-5.60272c4.13314,-1.19401 7.34782,-1.74509 9.91957,-1.74509c5.78637,0 10.4706,0.45923 13.96081,1.37766c3.58203,0.82665 6.61306,2.11256 9.00105,3.76579c3.3984,2.38804 6.15384,4.86794 8.26628,7.25598c2.1125,2.47986 3.7658,5.41899 5.05162,8.72553c1.37774,3.30648 2.11252,7.34779 2.29623,12.03204l-10.28693,-0.18355c-2.84732,0 -9.00108,-0.27555 -18.6451,-0.82667c-3.58205,-0.18353 -5.97009,-0.36752 -7.3478,-0.36752c-0.45923,0 -3.76572,0.092 -9.91956,0.092l-7.99069,0c-0.092,0.91843 -0.18355,1.65326 -0.18355,2.20431c0,3.30654 0.45921,6.7049 1.19404,10.3788c0.82657,3.58205 2.02063,6.70487 3.58203,9.46031c1.65325,2.75546 3.58204,5.05164 5.97009,6.98046c2.38805,2.02059 4.86794,3.39834 7.34781,4.31681l5.32717,1.74506c4.77609,0 7.89887,-0.18357 9.55216,-0.45921c2.93913,-0.64292 5.51084,-1.37773 7.71517,-2.2962c2.2962,-1.01031 4.95981,-2.66358 8.17445,-4.95975c2.20434,1.65329 4.04129,3.03096 5.60271,4.40867c-5.41899,5.87826 -11.11354,10.28696 -16.89997,12.95052c-5.78641,2.66361 -12.30757,3.94948 -19.47169,3.94948c-4.86791,0 -8.81736,-0.36754 -11.94017,-1.28587c-4.04131,-1.1022 -7.80702,-2.75546 -11.11358,-5.05166c-3.30648,-2.29615 -6.15378,-5.14342 -8.54185,-8.44997c-2.388,-3.39834 -4.225,-6.88859 -5.41897,-10.47061c-1.46958,-4.68423 -2.2962,-8.45 -2.2962,-11.20545c0,-5.41897 0.45925,-10.19508 1.28587,-14.51193l-0.00019,-0.00013zm53.63902,-3.94938c-0.092,-3.49027 -0.73475,-6.7049 -2.02063,-9.91961c-1.28587,-3.12281 -3.30654,-5.51081 -6.06195,-7.25593c-2.6636,-1.74514 -5.41906,-2.66359 -8.17445,-2.66359c-4.13315,0 -7.80708,1.83696 -11.20539,5.419c-3.30654,3.6739 -5.14348,8.54185 -5.60271,14.78746l21.03311,0.092c1.37772,0 3.3065,-0.092 5.69453,-0.27553c1.83696,-0.18355 3.12281,-0.27554 3.85764,-0.27554c0.55103,0 1.37768,0 2.47985,0.092l0,-0.00026z"/>
   <path fill="#ea2845" fill-rule="nonzero" stroke-width="1.148104" id="path824" d="m454.96283,120.447344c1.83694,-0.36754 3.21467,-0.55108 4.04131,-0.55108c0.45922,0 1.10219,0 1.92877,0.092l0.82664,0.91845c3.39835,5.87828 5.51087,9.36849 6.61302,10.65436c2.1125,2.47986 4.22498,4.50051 6.33751,6.06192c1.37771,0.91851 3.58204,2.02064 6.61302,3.03095c2.02064,0.73483 4.22498,1.10219 6.52118,1.10219c3.85762,0 7.16412,-1.19401 9.91955,-3.67392c2.75543,-2.57171 4.13314,-5.23529 4.13314,-8.17442c0,-1.92882 -0.55109,-3.58203 -1.56141,-4.95978c-1.01031,-1.37773 -3.1228,-2.7554 -6.24566,-4.13311c-1.56141,-0.64296 -5.41899,-1.74513 -11.66461,-3.30654c-6.15382,-1.56142 -9.82774,-2.57173 -11.11356,-3.03096c-2.93916,-1.10216 -5.51088,-2.6636 -7.71523,-4.59239c-2.29618,-2.02062 -3.94947,-4.22499 -5.14344,-6.70487c-1.56143,-3.4902 -2.38803,-6.52116 -2.38803,-9.00107c0,-4.68423 0.73474,-8.45 2.02059,-11.48093c1.37774,-2.93913 3.30656,-5.60271 5.78641,-7.8989c1.74509,-1.74514 4.40874,-3.30652 7.99078,-4.68422c3.58203,-1.37772 7.53146,-2.11254 11.57278,-2.11254c5.87827,0 11.02169,0.36754 15.43039,1.19404c4.40868,0.82664 8.17445,2.02064 11.20543,3.58205c0.45924,1.3777 0.91847,4.68423 1.65322,9.73584c0.64297,5.1435 1.01036,8.17445 1.01036,9.09295c0,0.45922 -0.092,0.91845 -0.27553,1.37772c-1.65327,0.45923 -2.93914,0.73476 -4.04131,0.73476c-0.55108,0 -1.46957,-0.092 -2.66361,-0.18352c-0.55106,-0.82666 -1.28587,-2.20437 -2.20434,-3.85764c-2.93908,-5.51087 -5.97008,-9.36845 -9.09292,-11.57281c-3.12277,-2.2962 -6.613,-3.39839 -10.74615,-3.39839c-4.22499,0 -7.80702,1.28589 -10.65433,3.67394c-2.1125,1.83694 -3.12284,4.22499 -3.12284,7.34781c0,2.0206 1.1022,4.04129 3.30656,6.1538c2.11249,2.11249 5.87824,3.76572 11.20541,4.86789c8.08256,1.74513 14.05266,3.58209 17.81841,5.32719c5.51086,2.57171 9.46029,5.69452 11.66464,9.18474c2.2044,3.49024 3.39837,7.53154 3.39837,12.12388c0,7.16414 -2.75539,13.13423 -8.17442,17.9103c-5.32718,4.68422 -13.13421,7.07226 -23.51301,7.07226c-1.28586,0 -4.86792,-0.27553 -10.56245,-0.91845c-2.57177,-0.27556 -5.60272,-0.91849 -9.09293,-1.83695c-0.91848,-0.27555 -3.1228,-1.10219 -6.79672,-2.6636c-0.64295,-0.36752 -1.1022,-0.82662 -1.46958,-1.28585c-0.18358,-0.55109 -0.64292,-3.12281 -1.194,-7.71521c-0.91845,-7.53152 -1.46956,-12.03204 -1.56141,-13.50162l0,-0.00027z"/>
   <path fill="#ea2845" fill-rule="nonzero" stroke-width="1.148104" id="path826" d="m530.64526,76.360454c7.25597,-3.03096 12.49128,-6.06197 15.70595,-9.00108c3.3065,-2.93908 6.70487,-7.80703 10.37877,-14.42006l5.23531,0c0.55108,1.65327 0.82664,3.30653 0.82664,5.05164c0,3.21464 -0.092,5.69456 -0.092,7.53151l-0.27555,5.41902c0,0.27552 0,1.0103 0.092,2.11247l2.1125,0.092c0.27555,0 3.21468,-0.092 8.63369,-0.36752c0.45924,0 2.75543,-0.092 6.88854,-0.18355c0.36754,1.65326 0.64298,3.12282 0.64298,4.40866c0,1.46961 -0.27555,3.12278 -0.73477,4.95977c-2.02068,0.27555 -3.49024,0.36756 -4.59244,0.36756c-0.45921,0 -1.46951,0 -2.93911,-0.18356l-4.77608,0l-1.6532,-0.092l-4.40872,0.18354l-0.18358,35.26949c-0.092,6.79674 0,11.11358 0.36755,12.76684c0.36754,1.74508 1.10217,3.30649 2.20432,4.86788c1.37771,0.64298 2.93912,1.01034 4.68425,1.01034c1.65323,0 2.84726,-0.18357 3.6739,-0.45921c0.82662,-0.36755 2.20432,-1.19402 4.04129,-2.6636c0.3675,-0.36755 1.01029,-0.73479 1.74513,-1.28587c1.46953,1.10218 2.75539,2.2962 3.67389,3.49022l0.36754,1.10218c-2.20433,3.39836 -5.23532,6.06195 -9.18477,7.99072c-3.85758,1.9288 -7.99071,2.8473 -12.39942,2.8473c-5.78638,0 -10.37875,-1.83697 -13.96086,-5.41903c-3.58202,-3.6739 -5.32712,-9.27663 -5.32712,-16.89999l0.36754,-16.16516l0,-26.36024l-2.84727,-0.092l-6.70489,0.092l-1.19401,-0.27556c-0.36754,-0.55109 -0.55106,-1.01031 -0.55106,-1.5614c0,-0.36754 0.092,-1.74509 0.18352,-4.13315l-0.00046,-0.00016z"/>
  </g>
  <text font-style="italic" xml:space="preserve" text-anchor="start" font-family="Euphoria, sans-serif" font-size="43" id="svg_1" y="65.929688" x="596.5" stroke-width="0.663868" fill="#ea2845">PLUS</text>
 </g>
</svg>