<svg width="436" height="197" xmlns="http://www.w3.org/2000/svg">
 <!-- Created with Method Draw - http://github.com/duopixel/Method-Draw/ -->

 <g>
  <title>background</title>
  <rect fill="#fff" id="canvas_background" height="199" width="438" y="-1" x="-1"/>
  <g display="none" overflow="visible" y="0" x="0" height="100%" width="100%" id="canvasGrid">
   <rect fill="url(#gridpattern)" stroke-width="0" y="0" x="0" height="100%" width="100%"/>
  </g>
 </g>
 <g>
  <title>Layer 1</title>
  <defs>
   <pattern y="0" x="0" height="6" width="6" patternUnits="userSpaceOnUse" id="svg_23"/>
  </defs>
  <metadata transform="matrix(0.2539525060129222,0,0,0.2539525060129222,0,0) " id="svg_22">image/svg+xml</metadata>
  <g stroke="null" id="svg_25">
   <g stroke="null" transform="matrix(0.48974542408415517,0,0,0.48974542408415517,-298.7627064039916,-215.08275878193126) " id="svg_20">
    <path fill="#e0234e" fill-rule="evenodd" stroke-width="0.807751" id="svg_21" d="m882.389044,573.08716c-1.80934,0 -3.48944,0.38773 -5.04032,0.90467c3.29558,2.19706 5.10493,5.10497 6.00963,8.40056c0.0648,0.45233 0.19386,0.77544 0.25856,1.22775c0.0648,0.38773 0.12916,0.77545 0.12916,1.16318c0.2586,5.6865 -1.48628,6.39732 -2.71403,9.75754c-1.87398,4.32953 -1.35704,8.98213 0.90466,12.73008c0.19387,0.45232 0.45234,0.96927 0.77546,1.42161c-2.45558,-16.34875 11.17919,-18.8043 13.69932,-23.90923c0.19386,-4.45877 -3.48944,-7.43127 -6.39731,-9.4991c-2.77864,-1.6801 -5.29884,-2.19706 -7.62513,-2.19706zm20.54903,3.68332c-0.25858,1.48625 -0.0647,1.09853 -0.12913,1.87397c-0.0647,0.51695 -0.0647,1.16316 -0.12914,1.6801c-0.12914,0.51696 -0.2586,1.03391 -0.45236,1.55089c-0.12913,0.51694 -0.32309,1.0339 -0.51694,1.55085c-0.2586,0.51698 -0.45234,0.9693 -0.71082,1.48625c-0.19385,0.25859 -0.32309,0.51695 -0.51695,0.77545c-0.12914,0.19385 -0.25858,0.38771 -0.38771,0.58157c-0.32309,0.45235 -0.64621,0.90467 -0.96929,1.29239c-0.38774,0.38773 -0.71083,0.84004 -1.16319,1.16317c0,0.0647 0,0.0647 0,0.0647c-0.38771,0.3231 -0.77543,0.71081 -1.22775,1.0339c-1.35702,1.0339 -2.90787,1.80935 -4.32952,2.77865c-0.45231,0.32308 -0.90468,0.58158 -1.29238,0.9693c-0.45233,0.32308 -0.84006,0.64617 -1.22776,1.0339c-0.45236,0.38771 -0.77545,0.77544 -1.16318,1.22778c-0.32309,0.38773 -0.7108,0.84005 -0.96927,1.2924c-0.32312,0.45232 -0.6462,0.90467 -0.9047,1.35699c-0.25857,0.51695 -0.45233,0.9693 -0.71081,1.48625c-0.19385,0.51694 -0.38773,0.9693 -0.51695,1.48624c-0.19386,0.58159 -0.3231,1.09855 -0.45234,1.61552c-0.0647,0.25858 -0.0647,0.58156 -0.12914,0.84004c-0.0648,0.25859 -0.0648,0.51695 -0.12913,0.77544c0,0.51695 -0.0647,1.09853 -0.0647,1.61548c0,0.38773 0,0.77544 0.0647,1.16317c0,0.51695 0.0647,1.03389 0.19385,1.61547c0.0647,0.51695 0.19384,1.03391 0.32312,1.55089c0.19386,0.51694 0.3231,1.0339 0.51694,1.55085c0.12916,0.32312 0.32309,0.64621 0.45236,0.90467l-14.86252,-5.75114c-2.52018,-0.71082 -4.9757,-1.35699 -7.49588,-1.93858c-1.357,-0.32308 -2.714,-0.64619 -4.07102,-0.9693c-3.87719,-0.77543 -7.81895,-1.35699 -11.76076,-1.7447c-0.12913,0 -0.19385,-0.06471 -0.32309,-0.06471c-3.8772,-0.38771 -7.68973,-0.58157 -11.5669,-0.58157c-2.84328,0 -5.68656,0.12913 -8.4652,0.32309c-3.9418,0.25858 -7.8836,0.77544 -11.82537,1.42161c-0.96931,0.12915 -1.93861,0.32313 -2.90791,0.51699c-2.0032,0.38769 -3.94177,0.84004 -5.81574,1.29238c-0.9693,0.25859 -1.9386,0.51696 -2.9079,0.77542c-0.96927,0.38771 -1.87394,0.84007 -2.77865,1.22779c-0.71081,0.32308 -1.42162,0.64618 -2.13243,0.9693c-0.12914,0.06471 -0.25858,0.06471 -0.32309,0.12914c-0.64621,0.32309 -1.22779,0.58155 -1.80934,0.90467c-0.19386,0.06471 -0.32312,0.12913 -0.45235,0.19386c-0.71081,0.32309 -1.42162,0.7108 -2.0032,1.0339c-0.45235,0.19386 -0.90467,0.45234 -1.29239,0.64621c-0.19386,0.12914 -0.45235,0.25858 -0.58158,0.32309c-0.58158,0.32309 -1.16316,0.64618 -1.68011,0.9693c-0.58158,0.32309 -1.09853,0.64618 -1.55088,0.96927c-0.45232,0.32312 -0.90467,0.58158 -1.29239,0.90467c-0.06474,0.06471 -0.12914,0.06471 -0.19387,0.12914c-0.38771,0.25859 -0.84003,0.58157 -1.22775,0.9047c0,0 -0.06473,0.0647 -0.12914,0.12914c-0.32309,0.25858 -0.64622,0.51695 -0.9693,0.77541c-0.12914,0.06471 -0.25859,0.19385 -0.38772,0.25858c-0.32309,0.25859 -0.64618,0.58159 -0.96928,0.84007c-0.06473,0.12914 -0.19385,0.19386 -0.25858,0.25859c-0.38772,0.38771 -0.77544,0.7108 -1.16316,1.09853c-0.06473,0 -0.06473,0.06471 -0.12914,0.12913c-0.38772,0.3231 -0.77544,0.71081 -1.16316,1.09854c-0.06473,0.06471 -0.06473,0.12913 -0.12914,0.12913c-0.32309,0.32309 -0.64618,0.64621 -0.9693,1.0339c-0.12913,0.12914 -0.32309,0.25859 -0.45232,0.38772c-0.32309,0.38772 -0.71081,0.77544 -1.09853,1.16317c-0.06473,0.12913 -0.19386,0.19386 -0.25858,0.32308c-0.51695,0.51699 -0.9693,1.03393 -1.48625,1.55089c-0.06473,0.06471 -0.12914,0.12913 -0.19386,0.19386c-1.03393,1.09853 -2.13246,2.19706 -3.29559,3.16635c-1.16316,1.0339 -2.39092,2.0032 -3.61871,2.84325c-1.2924,0.9047 -2.52016,1.68011 -3.87718,2.45555c-1.29239,0.71079 -2.64941,1.35701 -4.07103,1.9386c-1.35702,0.58157 -2.77864,1.09854 -4.20026,1.55085c-2.71404,0.58157 -5.49269,1.68011 -7.88361,1.87397c-0.51695,0 -1.09853,0.12915 -1.61548,0.19385c-0.58158,0.12914 -1.09853,0.25859 -1.61548,0.38774c-0.51695,0.19384 -1.03393,0.38771 -1.55088,0.58156c-0.51695,0.19386 -1.0339,0.45235 -1.55085,0.71083c-0.45235,0.32308 -0.9693,0.58157 -1.42165,0.90466c-0.45233,0.32309 -0.90468,0.7108 -1.2924,1.09853c-0.45232,0.32312 -0.90467,0.77545 -1.29239,1.16315c-0.38772,0.45237 -0.77544,0.84008 -1.09853,1.29239c-0.32309,0.51695 -0.71081,0.96931 -0.9693,1.48627c-0.32309,0.45235 -0.64618,0.96929 -0.90467,1.48622c-0.25858,0.58161 -0.51695,1.09855 -0.71081,1.68014c-0.19386,0.51695 -0.38772,1.09852 -0.58158,1.68011c-0.12914,0.51694 -0.25858,1.0339 -0.32309,1.55083c0,0.0648 -0.06472,0.12916 -0.06472,0.19387c-0.12914,0.58161 -0.12914,1.35706 -0.19386,1.74479c-0.06472,0.45232 -0.12914,0.84002 -0.12914,1.29238c0,0.25858 0,0.58155 0.06472,0.84003c0.06472,0.45236 0.12914,0.84007 0.25858,1.22782c0.12914,0.38766 0.25858,0.77539 0.45232,1.16312c0,0.0647 0,0.0647 0,0.0647c0.19386,0.38775 0.45235,0.77545 0.71081,1.16317c0.25859,0.38772 0.51698,0.77544 0.84007,1.16317c0.32309,0.32309 0.71082,0.71078 1.09853,1.03389c0.38773,0.38772 0.77545,0.71081 1.22777,1.0339c1.55088,1.35703 1.9386,1.80938 3.9418,2.84327c0.32309,0.19387 0.64621,0.32311 1.03393,0.51697c0.06473,0 0.12914,0.0647 0.19386,0.0647c0,0.12913 0,0.19387 0.06473,0.32313c0.06472,0.51696 0.19386,1.03389 0.32309,1.55086c0.12914,0.58158 0.32312,1.09855 0.51698,1.55087c0.19386,0.38773 0.32309,0.77543 0.51695,1.16317c0.06472,0.12915 0.12914,0.25858 0.19386,0.32309c0.25858,0.51694 0.51695,0.96932 0.77541,1.42162c0.32312,0.45233 0.64621,0.90466 0.9693,1.35703c0.32309,0.3877 0.71081,0.84004 1.09853,1.22775c0.38772,0.38773 0.77545,0.71083 1.2278,1.09852c0,0 0.06473,0.0648 0.12913,0.0648c0.38773,0.32312 0.77544,0.64622 1.16317,0.90466c0.45232,0.32311 0.90467,0.58157 1.42161,0.84007c0.45236,0.25858 0.96931,0.51695 1.48626,0.71082c0.38772,0.19386 0.84004,0.32311 1.29239,0.45234c0.06473,0.0648 0.12914,0.0648 0.25858,0.12916c0.25858,0.0648 0.58155,0.12912 0.84004,0.19384c-0.19386,3.48945 -0.25858,6.78504 0.25858,7.94822c0.58155,1.29238 3.42482,-2.64941 6.2681,-7.17277c-0.38772,4.45875 -0.64621,9.6929 0,11.24381c0.71081,1.61545 4.58798,-3.42487 7.9482,-8.98215c45.81526,-10.59757 87.62418,21.066 92.01829,65.78273c-0.84006,-6.97892 -9.43446,-10.85608 -13.37623,-9.88677c-1.93861,4.78183 -5.2342,10.92068 -10.53299,14.73324c0.45233,-4.2649 0.25856,-8.65901 -0.64619,-12.92392c-1.42165,5.94501 -4.2003,11.50232 -8.01287,16.28415l0,0c-6.13886,0.45232 -12.27773,-2.52019 -15.50872,-6.97891c-0.25858,-0.19388 -0.32309,-0.58159 -0.51695,-0.84006c-0.19386,-0.45238 -0.38772,-0.90467 -0.51695,-1.35703c-0.19386,-0.45232 -0.32309,-0.90467 -0.38772,-1.35699c-0.06473,-0.45236 -0.06473,-0.90469 -0.06473,-1.42163c0,-0.32312 0,-0.6462 0,-0.96928c0.06473,-0.45238 0.19386,-0.90471 0.32309,-1.35705c0.12914,-0.45232 0.25858,-0.90467 0.45235,-1.35701c0.25858,-0.45231 0.45232,-0.90466 0.77544,-1.35698c1.09853,-3.10178 1.09853,-5.62192 -0.90467,-7.10816c-0.38772,-0.25858 -0.77544,-0.45236 -1.22779,-0.64622c-0.25858,-0.0647 -0.58158,-0.19386 -0.84004,-0.25857c-0.19386,-0.0647 -0.32309,-0.12916 -0.51695,-0.19387c-0.45235,-0.12914 -0.9047,-0.25859 -1.35702,-0.32309c-0.45235,-0.12913 -0.90467,-0.19386 -1.35702,-0.19386c-0.45232,-0.0648 -0.96931,-0.12914 -1.42163,-0.12914c-0.32308,0 -0.64621,0.0647 -0.9693,0.0647c-0.51695,0 -0.9693,0.0648 -1.42162,0.19386c-0.45235,0.0648 -0.90467,0.12913 -1.35702,0.25856c-0.45232,0.12915 -0.90467,0.25859 -1.35702,0.45238c-0.45232,0.19385 -0.84004,0.38771 -1.29239,0.58157c-0.38769,0.19387 -0.77541,0.45232 -1.22776,0.64618c-15.05637,9.82217 -6.07423,32.82674 4.20026,39.48256c-3.87717,0.71081 -7.81894,1.5509 -8.91747,2.39092c-0.06473,0.0647 -0.12914,0.12915 -0.12914,0.12915c2.77864,1.68009 5.68651,3.10173 8.72361,4.32949c4.13567,1.35702 8.52979,2.58479 10.46839,3.10176c0,0 0,0.0647 0,0.0647c5.36342,1.09854 10.79148,1.48626 16.28414,1.16317c28.62649,-2.00321 52.0834,-23.78003 56.3483,-52.47111c0.12914,0.58159 0.25858,1.09852 0.38772,1.68012l0,0c0.19387,1.16312 0.45232,2.3909 0.58155,3.61867c0,0 0,0 0,0.0648c0.12914,0.58158 0.19386,1.16315 0.25858,1.6801c0,0.12914 0,0.19386 0,0.25859c0.0648,0.58157 0.12915,1.16316 0.12915,1.6801c0.0647,0.71082 0.12914,1.42162 0.12914,2.13247c0,0.32309 0,0.64619 0,1.0339c0,0.32312 0.0647,0.7108 0.0647,1.03392c0,0.38773 -0.0647,0.77542 -0.0647,1.16314c0,0.32313 0,0.64621 0,0.90467c0,0.45236 -0.0648,0.84006 -0.0648,1.2924c0,0.25856 0,0.51696 -0.0647,0.84006c0,0.45236 -0.0647,0.90466 -0.0647,1.42162c-0.0648,0.19386 -0.0648,0.38772 -0.0648,0.58159c-0.0647,0.51696 -0.12914,0.9693 -0.19387,1.48626c0,0.19387 0,0.38771 -0.0647,0.58159c-0.0648,0.64617 -0.19385,1.22777 -0.25855,1.87394c0,0 0,0.0648 0,0.0648l0,0.0647c-0.12914,0.58157 -0.2586,1.22776 -0.38775,1.80933c0,0.0647 0,0.12914 0,0.19387c-0.12912,0.58156 -0.25858,1.16316 -0.3877,1.74471c0,0.0648 -0.0647,0.19387 -0.0647,0.25856c-0.12916,0.5816 -0.2586,1.16317 -0.45232,1.74478c0,0.0647 0,0.12912 0,0.19384c-0.19386,0.64617 -0.38773,1.22776 -0.51698,1.80934c-0.0647,0.0647 -0.0647,0.12914 -0.0647,0.12914c-0.19387,0.64621 -0.38771,1.29239 -0.58155,1.93858c-0.25858,0.64621 -0.45234,1.22778 -0.71081,1.87398c-0.25857,0.6462 -0.45236,1.2924 -0.71083,1.87396c-0.25859,0.64622 -0.51697,1.2278 -0.77543,1.87397c0,0 -0.0648,0 -0.0648,0c-0.2586,0.58157 -0.51699,1.22779 -0.8401,1.80938c0,0 0,0 0,0c0,0 0,0 0,0c-0.0647,0.19383 -0.12912,0.32309 -0.19384,0.4523c-0.0647,0.0648 -0.0647,0.12914 -0.12914,0.19388c-4.20026,8.46514 -10.40377,15.89639 -18.15809,21.71217l0,0c-0.51695,0.32309 -1.03392,0.71082 -1.55086,1.09852c0,0 0,0 0,0c-0.12915,0.12915 -0.32312,0.19388 -0.45235,0.32309c-0.45235,0.3231 -0.90468,0.64618 -1.42161,0.96931l0.19385,0.38772l0.0647,0l0,0c0.90466,-0.12913 1.80934,-0.25858 2.71402,-0.38772l0.0647,0c1.68012,-0.25858 3.36023,-0.58158 5.04035,-0.90467c0.45231,-0.0648 0.9693,-0.19385 1.42161,-0.32312c0.32309,-0.0648 0.58158,-0.12913 0.90467,-0.19386c0.45235,-0.0648 0.90468,-0.19386 1.35704,-0.25857c0.3877,-0.12914 0.77543,-0.19388 1.16314,-0.3231c6.46195,-1.55089 12.73007,-3.68335 18.73965,-6.20349c-10.27448,14.02243 -24.03847,25.33087 -40.12874,32.76212c7.43127,-0.51696 14.86251,-1.74472 22.03528,-3.81254c26.0417,-7.68977 47.94772,-25.20165 61.06549,-48.7878c-2.6494,14.92714 -8.5944,29.14344 -17.38265,41.55041c6.26809,-4.13569 12.01923,-8.91753 17.25342,-14.34557c14.47478,-15.12097 23.97388,-34.31296 27.20483,-54.92665c2.19708,10.2099 2.84328,20.74293 1.87398,31.14666c46.65534,-65.07192 3.87717,-132.53476 -14.02244,-150.30514c-0.0648,-0.12913 -0.12914,-0.19386 -0.12914,-0.32309c-0.0648,0.0647 -0.0648,0.0647 -0.0648,0.12914c0,-0.06471 0,-0.06471 -0.0647,-0.12914c0,0.77544 -0.0647,1.55085 -0.12914,2.32629c-0.19387,1.48625 -0.38771,2.90788 -0.64621,4.32953c-0.32308,1.42162 -0.71081,2.84322 -1.09854,4.26488c-0.45232,1.35699 -0.96925,2.77862 -1.55085,4.13565c-0.58158,1.29237 -1.22778,2.64939 -1.93859,3.9418c-0.71082,1.22778 -1.48625,2.52016 -2.32629,3.6833c-0.84006,1.2278 -1.74474,2.39093 -2.64943,3.48944c-0.96931,1.16318 -2.00319,2.1971 -3.03712,3.23101c-0.64618,0.58158 -1.22775,1.09853 -1.87398,1.61546c-0.51694,0.45236 -0.96927,0.84009 -1.48625,1.29239c-1.16314,0.90468 -2.32629,1.74474 -3.61867,2.52019c-1.22778,0.77542 -2.52014,1.55086 -3.81254,2.19707c-1.35702,0.64619 -2.71404,1.22776 -4.07104,1.80935c-1.35702,0.51693 -2.77864,0.96928 -4.20031,1.35701c-1.42161,0.3877 -2.90785,0.71081 -4.32949,0.96928c-1.48623,0.25858 -2.97249,0.38771 -4.39412,0.51697c-1.03392,0.0647 -2.06782,0.12915 -3.10175,0.12915c-1.48626,0 -2.97248,-0.12915 -4.39412,-0.25858c-1.48624,-0.12914 -2.97251,-0.32314 -4.39413,-0.64623c-1.48625,-0.25858 -2.9079,-0.64621 -4.32953,-1.09851l-0.0647,0c1.42163,-0.12914 2.84327,-0.2586 4.26492,-0.51697c1.48622,-0.25858 2.90785,-0.58156 4.3295,-0.96931c1.42162,-0.38771 2.84325,-0.84006 4.20026,-1.357c1.42162,-0.51696 2.77865,-1.16313 4.07105,-1.80936c1.357,-0.64621 2.58478,-1.357 3.87716,-2.13244c1.22776,-0.84005 2.45554,-1.68009 3.61869,-2.58479c1.16316,-0.90466 2.26167,-1.87394 3.29562,-2.90786c1.09853,-0.96932 2.06781,-2.06784 3.03711,-3.16638c0.96927,-1.16312 1.87396,-2.32628 2.71402,-3.48944c0.12915,-0.19387 0.25859,-0.45232 0.38774,-0.64619c0.64617,-1.03392 1.29235,-2.06783 1.87392,-3.10176c0.71083,-1.29239 1.35704,-2.58479 1.9386,-3.94177c0.58159,-1.35702 1.09855,-2.71405 1.55089,-4.13566c0.45232,-1.35703 0.77542,-2.77864 1.09853,-4.20026c0.25859,-1.48626 0.51694,-2.90791 0.64619,-4.32953c0.12914,-1.48624 0.25857,-2.9725 0.25857,-4.39412c0,-1.03392 -0.0648,-2.06783 -0.12912,-3.10173c-0.12915,-1.48624 -0.32311,-2.9079 -0.51696,-4.32952c-0.25859,-1.48625 -0.58157,-2.90787 -0.96931,-4.32953c-0.45231,-1.35699 -0.90467,-2.77863 -1.42161,-4.13562c-0.51699,-1.35703 -1.16315,-2.71404 -1.80938,-4.00644c-0.71081,-1.29239 -1.42161,-2.58478 -2.19704,-3.81254c-0.84005,-1.22776 -1.68013,-2.39092 -2.5848,-3.55409c-0.96927,-1.09853 -1.93857,-2.19706 -2.97251,-3.29559c-0.51694,-0.51694 -1.09853,-1.09853 -1.6801,-1.61547c-2.90787,-2.2617 -5.945,-4.39416 -8.9821,-6.33273c-0.45233,-0.25858 -0.84005,-0.45235 -1.2924,-0.64622c-2.13246,-1.35699 -4.13566,-2.06783 -6.13885,-2.714l-0.00011,-0.00036z"/>
   </g>
  </g>
  <g stroke="null" id="svg_44">
   <path stroke="null" id="svg_30" fill="#ffd740" d="m224.999943,32.723066c-17.824773,0 -32.276866,14.450123 -32.276866,32.276866c0,13.541943 8.349944,25.117801 20.173041,29.908899l0,-17.805074l-4.034608,0c-1.486382,0 -2.854563,-0.818544 -3.558847,-2.130581c-0.701328,-1.311051 -0.625483,-2.90283 0.201927,-4.140988l16.138433,-24.207649c0.748609,-1.123898 2.007455,-1.797647 3.35692,-1.797647s2.608311,0.673749 3.35692,1.797647l16.138433,24.207649c0.82544,1.238158 0.901286,2.829937 0.201927,4.140988c-0.704284,1.312037 -2.072465,2.130581 -3.558847,2.130581l-4.034608,0l0,17.805074c11.823097,-4.791097 20.173041,-16.366955 20.173041,-29.908899c0,-17.826742 -14.452093,-32.276866 -32.276866,-32.276866zm0,0"/>
   <g stroke="null" transform="matrix(0.2521630119555229,0,0,0.2521630119555229,-527.326006939802,-427.8799995413465) " id="svg_31" fill="#263238">
    <path stroke="null" id="svg_32" d="m2983.490608,2150.608467c-108.07812,0 -196,-87.92969 -196,-196s87.92188,-196 196,-196s196,87.92969 196,196s-87.92187,196 -196,196zm0,-384c-103.66406,0 -188,84.33594 -188,188s84.33594,188 188,188s188,-84.33594 188,-188s-84.33594,-188 -188,-188zm0,0"/>
    <path stroke="null" id="svg_33" d="m2759.490608,1958.608467c-2.20703,0 -4,-1.79297 -4,-4c0,-125.71875 102.28125,-228 228,-228c2.20703,0 4,1.79297 4,4s-1.79297,4 -4,4c-121.30469,0 -220,98.6875 -220,220c0,2.20703 -1.79297,4 -4,4zm0,0"/>
    <path stroke="null" id="svg_34" d="m3007.490608,1734.608467l-8,0c-2.20703,0 -4,-1.79297 -4,-4s1.79297,-4 4,-4l8,0c2.20703,0 4,1.79297 4,4s-1.79297,4 -4,4zm0,0"/>
    <path stroke="null" id="svg_35" d="m2983.490608,2182.608467c-2.20703,0 -4,-1.79297 -4,-4s1.79297,-4 4,-4c121.30469,0 220,-98.6875 220,-220c0,-2.20703 1.79297,-4 4,-4s4,1.79297 4,4c0,125.71875 -102.28125,228 -228,228zm0,0"/>
    <path stroke="null" id="svg_36" d="m2967.490608,2182.608467l-8,0c-2.20703,0 -4,-1.79297 -4,-4s1.79297,-4 4,-4l8,0c2.20703,0 4,1.79297 4,4s-1.79297,4 -4,4zm0,0"/>
    <path stroke="null" id="svg_37" d="m3151.490608,1750.608467l-32,0c-2.20703,0 -4,-1.79297 -4,-4s1.79297,-4 4,-4l32,0c2.20703,0 4,1.79297 4,4s-1.79297,4 -4,4zm0,0"/>
    <path stroke="null" id="svg_38" d="m3135.490608,1766.608467c-2.20703,0 -4,-1.79297 -4,-4l0,-32c0,-2.20703 1.79297,-4 4,-4s4,1.79297 4,4l0,32c0,2.20703 -1.79297,4 -4,4zm0,0"/>
    <path stroke="null" id="svg_39" d="m3207.490608,1802.608467l-32,0c-2.20703,0 -4,-1.79297 -4,-4s1.79297,-4 4,-4l32,0c2.20703,0 4,1.79297 4,4s-1.79297,4 -4,4zm0,0"/>
    <path stroke="null" id="svg_40" d="m3191.490608,1818.608467c-2.20703,0 -4,-1.79297 -4,-4l0,-32c0,-2.20703 1.79297,-4 4,-4s4,1.79297 4,4l0,32c0,2.20703 -1.79297,4 -4,4zm0,0"/>
   </g>
   <path stroke="null" id="svg_41" fill="#ff5252" d="m224.999943,48.861499l-16.138433,24.207649l8.069216,0l0,22.190345c0,1.113063 0.904241,2.017304 2.017304,2.017304l12.103825,0c1.113063,0 2.017304,-0.904241 2.017304,-2.017304l0,-22.190345l8.069216,0l-16.138433,-24.207649zm0,0"/>
   <path stroke="null" id="svg_42" fill="#263238" d="m231.051855,98.285449l-12.103825,0c-1.668611,0 -3.025956,-1.357346 -3.025956,-3.025956l0,-21.181693l-7.060564,0c-0.37332,0 -0.714133,-0.205868 -0.887495,-0.532891c-0.177303,-0.328009 -0.157602,-0.725955 0.048267,-1.034262l16.138433,-24.207649c0.375289,-0.561459 1.303168,-0.561459 1.67846,0l16.138433,24.207649c0.207835,0.308307 0.225567,0.708223 0.048264,1.034262c-0.173362,0.327023 -0.514176,0.532891 -0.887495,0.532891l-7.060564,0l0,21.181693c0,1.668611 -1.357346,3.025956 -3.025956,3.025956zm-20.304047,-26.224953l6.182919,0c0.556531,0 1.008652,0.452121 1.008652,1.008652l0,22.190345c0,0.556531 0.45409,1.008652 1.008652,1.008652l12.103825,0c0.554562,0 1.008652,-0.452121 1.008652,-1.008652l0,-22.190345c0,-0.556531 0.452121,-1.008652 1.008652,-1.008652l6.182919,0l-14.252135,-21.381651l-14.252135,21.381651zm0,0"/>
   <path stroke="null" id="svg_43" fill="#263238" d="m237.103768,95.917482c-0.39696,0 -0.776188,-0.238375 -0.935762,-0.629424c-0.209807,-0.517131 0.042356,-1.106169 0.556531,-1.314006c11.871363,-4.810796 19.543619,-16.184727 19.543619,-28.97412c0,-17.241646 -14.026568,-31.268213 -31.268213,-31.268213s-31.268213,14.026568 -31.268213,31.268213c0,12.789393 7.672256,24.163324 19.541647,28.97412c0.516147,0.209807 0.766341,0.796875 0.556534,1.314006c-0.20981,0.514176 -0.798845,0.7624 -1.313023,0.554562c-12.636716,-5.120092 -20.802463,-17.225886 -20.802463,-30.842688c0,-18.353725 14.931792,-33.285518 33.285518,-33.285518s33.285518,14.931792 33.285518,33.285518c0,13.616803 -8.165747,25.722597 -20.804434,30.844658c-0.123126,0.048267 -0.252163,0.072893 -0.377259,0.072893zm0,0"/>
  </g>
  <text xml:space="preserve" text-anchor="start" font-family="Euphoria, sans-serif" font-size="24" id="svg_46" y="161.5" x="194.5" stroke-width="0" stroke="#000" fill="#000000">@golevelup/nestjs</text>
 </g>
</svg>